<?xml version="1.0" encoding="UTF-8" standalone="no"?>
<svg width="160px" height="80px" viewBox="0 0 160 80" version="1.1" xmlns="http://www.w3.org/2000/svg" xmlns:xlink="http://www.w3.org/1999/xlink">
    <defs></defs>
    <g stroke="none" stroke-width="1" fill="none" fill-rule="evenodd">
        <g>
            <rect fill-opacity="0.081861413" fill="#FFFFFF" x="0" y="0" width="160" height="80"></rect>
            <rect fill-opacity="0.164600317" fill="#000000" x="40" y="72" width="120" height="8"></rect>
            <g>
                <rect fill-opacity="0.161882926" fill="#000000" x="0" y="0" width="40" height="80"></rect>
                <rect fill-opacity="0.08" fill="#FFFFFF" x="4" y="4" width="24" height="4"></rect>
                <rect fill-opacity="0.08" fill="#FFFFFF" x="4" y="12" width="16" height="4"></rect>
                <rect fill-opacity="0.08" fill="#FFFFFF" x="4" y="20" width="30" height="4"></rect>
                <rect fill-opacity="0.08" fill="#FFFFFF" x="4" y="28" width="21" height="4"></rect>
                <rect fill-opacity="0.08" fill="#FFFFFF" x="4" y="36" width="24" height="4"></rect>
            </g>
            <g transform="translate(40.000000, 0.000000)" fill-opacity="0.164600317" fill="#000000">
                <rect x="60" y="0" width="60" height="8"></rect>
                <rect x="0" y="0" width="30" height="8"></rect>
            </g>
            <g transform="translate(56.000000, 0.000000)">
                <rect fill="#BB263A" x="0" y="0" width="48" height="32"></rect>
                <rect fill="#FF5F74" x="4" y="4" width="40" height="4"></rect>
                <rect fill="#FF5F74" x="4" y="12" width="22" height="4"></rect>
                <rect fill="#FF5F74" x="4" y="18" width="30" height="4"></rect>
                <rect fill="#FF5F74" x="4" y="24" width="18" height="4"></rect>
            </g>
        </g>
    </g>
</svg>